<svg viewBox="0 0 128 128" xmlns="http://www.w3.org/2000/svg" xmlns:xlink="http://www.w3.org/1999/xlink"><circle cx="64" cy="64" fill="#F54F33" r="64"/><defs><circle cx="64" cy="64" id="a" r="64"/></defs><clipPath id="b"><use overflow="visible" xlink:href="#a"/></clipPath><path clip-path="url(#b)" fill="#DD2C24" d="M20.161 96.119L52.036 128H128V52.536l-19.885-19.914z"/><path d="M104.944 96.947H23.056a4 4 0 01-4-4V35.053a4 4 0 014-4h81.888a4 4 0 014 4v57.894a4 4 0 01-4 4z" fill="#FFF"/><path d="M108.944 42.054v-7.001a4 4 0 00-4-4H23.056a4 4 0 00-4 4v7.001h89.888z" fill="#E1E3E9"/><circle cx="25" cy="36.553" fill="#F24B45" r="3"/><circle cx="34" cy="36.553" fill="#FFB202" r="3"/><circle cx="43.001" cy="36.553" fill="#4CBB41" r="3"/><defs><path d="M104.944 96.947H23.056a4 4 0 01-4-4V35.053a4 4 0 014-4h81.888a4 4 0 014 4v57.894a4 4 0 01-4 4z" id="c"/></defs><clipPath id="d"><use overflow="visible" xlink:href="#c"/></clipPath><path clip-path="url(#d)" fill="#E1E3E9" opacity=".8" d="M30.866 70.855L57.438 97.5H110V79.563l-12.866-12.9-12.665-2.944-12.674-12.663-7.419 16.132L53.475 56.3 31.937 68.83z"/><path d="M30.866 66.804L53.475 56.3v4.993l-17.099 7.49v.094l17.099 7.489v4.993L30.866 70.855v-4.051zm26.092 18.402l10.08-34.15h4.758l-10.081 34.15h-4.757zm40.176-14.209L74.525 81.359v-4.993L92 68.877v-.094l-17.476-7.49V56.3l22.609 10.363v4.334z" fill="#53899F"/></svg>